# xmcd
#
# Track frame offsets:
#	150
#	13804
#	28251
#	40904
#
# Disc length: 741 seconds
#
# Revision: 0
# Processed by: cddbd v1.5.2PL0 Copyright (c) Steve Scherf et al.
# Submitted via: audiograbber 1.83.01
#
DISCID=2d02e304
DTITLE=Calvin Ray - 4 From Take That Chance Calvin Ray
DYEAR=2007
DGENRE=Country
TTITLE0=Should´ve Been Singing Rock Of Ages
TTITLE1=Clearwater Mississippi Rendevous
TTITLE2=She Just Like The Fall
TTITLE3=Coming Soon
EXTD=
EXTT0=
EXTT1=
EXTT2=
EXTT3=
PLAYORDER=
